# xmcd
#
# Track frame offsets:
# 182
# 17842
# 34917
# 59455
# 74735
# 91235
# 107847
# 119885
# 135432
# 149882
# 168407
#
# Disc length: 2489 seconds
#
#
# Revision: 2
# Processed by: cddbd v1.5PL3 Copyright (c) Steve Scherf et al.
# Submitted via: FreeRIP 2.70 
#
DISCID=ad09b70b
DTITLE=Marc Benno - Snake Charmer
DYEAR=1994
DGENRE=Blues
TTITLE0=Shape I'm In
TTITLE1=Rock and Roll Angel
TTITLE2=Love Junkie
TTITLE3=Every Night Is Saturday Night
TTITLE4=Snake Charmer
TTITLE5=Laverne
TTITLE6=Jimmy Reed's Mama
TTITLE7=Barbecutie
TTITLE8=Shuffle Girl
TTITLE9=Sugar Blues
TTITLE10=Fishin
EXTD=
EXTT0=
EXTT1=
EXTT2=
EXTT3=
EXTT4=
EXTT5=
EXTT6=
EXTT7=
EXTT8=
EXTT9=
EXTT10=
PLAYORDER=
